<svg xmlns="http://www.w3.org/2000/svg" viewBox="0 0 209.27 155.64"><g id="Layer_2" data-name="Layer 2"><g id="Layer_1-2" data-name="Layer 1"><path d="M128.11,140.41c3.39-8.06,6.88-15.32,9.48-22.89,2.09-6.09,5.63-3.07,9-2.28,4.37,1,3,4.08,2,6.62-4.31,10.51-8.7,21-13.29,31.39a4.85,4.85,0,0,1-3.68,2.27q-24.69.22-49.37,0c-1.44,0-3.64-1.24-4.17-2.47C70.42,135.4,63.13,117.63,55.57,100,50.37,87.84,44.82,75.86,39.5,63.78,34.26,51.89,28.92,40,24,28c-3.7-9-9.91-14.57-19.51-16.34C.5,11-.14,8,0,4.56S2,0,5.21,0Q45.84.09,86.49.07A6.66,6.66,0,0,1,87.9.36c2.27,7.11,1.54,9.09-4.45,12.28-4.41,2.35-6.09,8.68-4,13.41,5.06,11.62,9.82,23.38,14.84,35S104.47,84,109.4,95.53c4.87,11.39,9.5,22.88,14.25,34.32C125,133.13,126.42,136.4,128.11,140.41Z"/><path d="M175.75,56.05l-8.4-3.87c3.36-15.44.61-22.64-11.91-31a40.78,40.78,0,0,0,1.75-4.38c1-3.68,2.59-4.39,6.77-3.51,11.46,2.42,19.86-2.75,25.48-12.92l8.36,4c-3.5,13-.71,23.73,11.47,30.91-.43,1-.86,1.91-1.15,2.82-1.34,4.15-3,6-8.41,5.07C189.15,41.33,181.15,46.33,175.75,56.05Z"/></g></g></svg>
